# WaveFront *.obj file (generated by Autodesk ATF)

mtllib sand v1.mtl

g sand

v -40.000000 0.000000 0.000000
v -40.000000 10.000000 0.000000
v -40.000000 20.000000 0.000000
v -40.000000 30.000000 0.000000
v -40.000000 40.000000 0.000000
v -40.000000 40.000000 1.000000
v -40.000000 30.000000 1.000000
v -40.000000 20.000000 1.000000
v -40.000000 10.000000 1.000000
v -40.000000 0.000000 1.000000
v -42.000000 42.000000 0.000000
v -42.000000 31.000000 0.000000
v -42.000000 20.000000 0.000000
v -42.000000 9.000000 0.000000
v -42.000000 -2.000000 0.000000
v 0.000000 40.000000 1.000000
v 2.000000 42.000000 0.000000
v -9.000000 42.000000 0.000000
v -20.000000 42.000000 0.000000
v -31.000000 42.000000 0.000000
v -30.000000 40.000000 1.000000
v -20.000000 40.000000 1.000000
v -10.000000 40.000000 1.000000
v -30.000000 40.000000 0.000000
v -20.000000 40.000000 0.000000
v -10.000000 40.000000 0.000000
v 0.000000 40.000000 0.000000
v 2.000000 31.000000 0.000000
v 2.000000 20.000000 0.000000
v 2.000000 9.000000 0.000000
v 2.000000 -2.000000 0.000000
v -9.000000 -2.000000 0.000000
v -20.000000 -2.000000 0.000000
v -31.000000 -2.000000 0.000000
v -30.000000 0.000000 0.000000
v -20.000000 0.000000 0.000000
v -10.000000 0.000000 0.000000
v 0.000000 0.000000 0.000000
v 0.000000 10.000000 0.000000
v 0.000000 20.000000 0.000000
v 0.000000 30.000000 0.000000
v -30.000000 0.000000 1.000000
v -20.000000 0.000000 1.000000
v -10.000000 0.000000 1.000000
v 0.000000 0.000000 1.000000
v 0.000000 10.000000 1.000000
v 0.000000 20.000000 1.000000
v 0.000000 30.000000 1.000000
vt 0.000000 -4.000000 0.000000
vt 1.000000 -4.000000 0.000000
vt 0.000000 6.000000 0.000000
vt 1.000000 6.000000 0.000000
vt 0.000000 16.000000 0.000000
vt 1.000000 16.000000 0.000000
vt 0.000000 26.000000 0.000000
vt 1.000000 26.000000 0.000000
vt 0.000000 36.000000 0.000000
vt 1.000000 36.000000 0.000000
vt -2.236068 -42.000000 0.000000
vt 0.000000 -40.000000 0.000000
vt -2.236068 -31.000000 0.000000
vt 0.000000 -30.000000 0.000000
vt -2.236068 -20.000000 0.000000
vt 0.000000 -20.000000 0.000000
vt 0.000000 -10.000000 0.000000
vt -2.236068 -9.000000 0.000000
vt 0.000000 0.000000 0.000000
vt -2.236068 2.000000 0.000000
vt 0.000000 0.000000 0.000000
vt -11.000000 0.000000 0.000000
vt -2.000000 -2.236068 0.000000
vt -12.000000 -2.236068 0.000000
vt -22.000000 0.000000 0.000000
vt -22.000000 -2.236068 0.000000
vt -32.000000 -2.236068 0.000000
vt -33.000000 0.000000 0.000000
vt -42.000000 -2.236068 0.000000
vt -44.000000 0.000000 0.000000
vt -1.000000 -40.000000 0.000000
vt 0.000000 -40.000000 0.000000
vt -1.000000 -30.000000 0.000000
vt 0.000000 -30.000000 0.000000
vt -1.000000 -20.000000 0.000000
vt 0.000000 -20.000000 0.000000
vt -1.000000 -10.000000 0.000000
vt 0.000000 -10.000000 0.000000
vt -1.000000 0.000000 0.000000
vt 0.000000 0.000000 0.000000
vt 33.000000 -40.000000 0.000000
vt 44.000000 -40.000000 0.000000
vt 42.000000 -38.000000 0.000000
vt 44.000000 -29.000000 0.000000
vt 42.000000 -28.000000 0.000000
vt 44.000000 -18.000000 0.000000
vt 42.000000 -18.000000 0.000000
vt 42.000000 -8.000000 0.000000
vt 44.000000 -7.000000 0.000000
vt 42.000000 2.000000 0.000000
vt 44.000000 4.000000 0.000000
vt 33.000000 4.000000 0.000000
vt 32.000000 2.000000 0.000000
vt 22.000000 4.000000 0.000000
vt 22.000000 2.000000 0.000000
vt 12.000000 2.000000 0.000000
vt 11.000000 4.000000 0.000000
vt 2.000000 2.000000 0.000000
vt 0.000000 4.000000 0.000000
vt 0.000000 -7.000000 0.000000
vt 2.000000 -8.000000 0.000000
vt 0.000000 -18.000000 0.000000
vt 2.000000 -18.000000 0.000000
vt 2.000000 -28.000000 0.000000
vt 0.000000 -29.000000 0.000000
vt 2.000000 -38.000000 0.000000
vt 0.000000 -40.000000 0.000000
vt 11.000000 -40.000000 0.000000
vt 12.000000 -38.000000 0.000000
vt 22.000000 -40.000000 0.000000
vt 22.000000 -38.000000 0.000000
vt 32.000000 -38.000000 0.000000
vt -1.000000 -40.000000 0.000000
vt 0.000000 -40.000000 0.000000
vt -1.000000 -30.000000 0.000000
vt 0.000000 -30.000000 0.000000
vt -1.000000 -20.000000 0.000000
vt 0.000000 -20.000000 0.000000
vt -1.000000 -10.000000 0.000000
vt 0.000000 -10.000000 0.000000
vt -1.000000 0.000000 0.000000
vt 0.000000 0.000000 0.000000
vt 2.000000 -2.236068 0.000000
vt 0.000000 0.000000 0.000000
vt -9.000000 -2.236068 0.000000
vt -10.000000 0.000000 0.000000
vt -20.000000 -2.236068 0.000000
vt -20.000000 0.000000 0.000000
vt -30.000000 0.000000 0.000000
vt -31.000000 -2.236068 0.000000
vt -40.000000 0.000000 0.000000
vt -42.000000 -2.236068 0.000000
vt 1.000000 40.000000 0.000000
vt 0.000000 40.000000 0.000000
vt 1.000000 30.000000 0.000000
vt 0.000000 30.000000 0.000000
vt 1.000000 20.000000 0.000000
vt 0.000000 20.000000 0.000000
vt 1.000000 10.000000 0.000000
vt 0.000000 10.000000 0.000000
vt 1.000000 0.000000 0.000000
vt 0.000000 0.000000 0.000000
vt 2.236068 42.000000 0.000000
vt 0.000000 40.000000 0.000000
vt 2.236068 31.000000 0.000000
vt 0.000000 30.000000 0.000000
vt 2.236068 20.000000 0.000000
vt 0.000000 20.000000 0.000000
vt 0.000000 10.000000 0.000000
vt 2.236068 9.000000 0.000000
vt 0.000000 0.000000 0.000000
vt 2.236068 -2.000000 0.000000
vn 1.000000 0.000000 0.000000
vn 1.000000 0.000000 0.000000
vn 1.000000 0.000000 0.000000
vn 1.000000 0.000000 0.000000
vn 1.000000 0.000000 0.000000
vn 1.000000 0.000000 0.000000
vn 1.000000 0.000000 0.000000
vn 1.000000 0.000000 0.000000
vn 1.000000 0.000000 0.000000
vn 1.000000 0.000000 0.000000
vn -0.447214 0.000000 0.894427
vn -0.447214 0.000000 0.894427
vn -0.447214 0.000000 0.894427
vn -0.447214 0.000000 0.894427
vn -0.447214 0.000000 0.894427
vn -0.447214 0.000000 0.894427
vn -0.447214 0.000000 0.894427
vn -0.447214 0.000000 0.894427
vn -0.447214 0.000000 0.894427
vn -0.447214 0.000000 0.894427
vn 0.000000 0.447214 0.894427
vn 0.000000 0.447214 0.894427
vn 0.000000 0.447214 0.894427
vn 0.000000 0.447214 0.894427
vn 0.000000 0.447214 0.894427
vn 0.000000 0.447214 0.894427
vn 0.000000 0.447214 0.894427
vn 0.000000 0.447214 0.894427
vn 0.000000 0.447214 0.894427
vn 0.000000 0.447214 0.894427
vn 0.000000 -1.000000 0.000000
vn 0.000000 -1.000000 0.000000
vn 0.000000 -1.000000 0.000000
vn 0.000000 -1.000000 0.000000
vn 0.000000 -1.000000 0.000000
vn 0.000000 -1.000000 0.000000
vn 0.000000 -1.000000 0.000000
vn 0.000000 -1.000000 0.000000
vn 0.000000 -1.000000 0.000000
vn 0.000000 -1.000000 0.000000
vn 0.000000 0.000000 -1.000000
vn 0.000000 0.000000 -1.000000
vn 0.000000 0.000000 -1.000000
vn 0.000000 0.000000 -1.000000
vn 0.000000 0.000000 -1.000000
vn 0.000000 0.000000 -1.000000
vn 0.000000 0.000000 -1.000000
vn 0.000000 0.000000 -1.000000
vn 0.000000 0.000000 -1.000000
vn 0.000000 0.000000 -1.000000
vn 0.000000 0.000000 -1.000000
vn 0.000000 0.000000 -1.000000
vn 0.000000 0.000000 -1.000000
vn 0.000000 0.000000 -1.000000
vn 0.000000 0.000000 -1.000000
vn 0.000000 0.000000 -1.000000
vn 0.000000 0.000000 -1.000000
vn 0.000000 0.000000 -1.000000
vn 0.000000 0.000000 -1.000000
vn 0.000000 0.000000 -1.000000
vn 0.000000 0.000000 -1.000000
vn 0.000000 0.000000 -1.000000
vn 0.000000 0.000000 -1.000000
vn 0.000000 0.000000 -1.000000
vn 0.000000 0.000000 -1.000000
vn 0.000000 0.000000 -1.000000
vn 0.000000 0.000000 -1.000000
vn 0.000000 0.000000 -1.000000
vn 0.000000 0.000000 -1.000000
vn 0.000000 0.000000 -1.000000
vn 0.000000 0.000000 -1.000000
vn 0.000000 0.000000 -1.000000
vn 0.000000 1.000000 0.000000
vn 0.000000 1.000000 0.000000
vn 0.000000 1.000000 0.000000
vn 0.000000 1.000000 0.000000
vn 0.000000 1.000000 0.000000
vn 0.000000 1.000000 0.000000
vn 0.000000 1.000000 0.000000
vn 0.000000 1.000000 0.000000
vn 0.000000 1.000000 0.000000
vn 0.000000 1.000000 0.000000
vn 0.000000 -0.447214 0.894427
vn 0.000000 -0.447214 0.894427
vn 0.000000 -0.447214 0.894427
vn 0.000000 -0.447214 0.894427
vn 0.000000 -0.447214 0.894427
vn 0.000000 -0.447214 0.894427
vn 0.000000 -0.447214 0.894427
vn 0.000000 -0.447214 0.894427
vn 0.000000 -0.447214 0.894427
vn 0.000000 -0.447214 0.894427
vn -1.000000 0.000000 0.000000
vn -1.000000 0.000000 0.000000
vn -1.000000 0.000000 0.000000
vn -1.000000 0.000000 0.000000
vn -1.000000 0.000000 0.000000
vn -1.000000 0.000000 0.000000
vn -1.000000 0.000000 0.000000
vn -1.000000 0.000000 0.000000
vn -1.000000 0.000000 0.000000
vn -1.000000 0.000000 0.000000
vn 0.447214 0.000000 0.894427
vn 0.447214 0.000000 0.894427
vn 0.447214 0.000000 0.894427
vn 0.447214 0.000000 0.894427
vn 0.447214 0.000000 0.894427
vn 0.447214 0.000000 0.894427
vn 0.447214 0.000000 0.894427
vn 0.447214 0.000000 0.894427
vn 0.447214 0.000000 0.894427
vn 0.447214 0.000000 0.894427
usemtl Steel_-_Satin
f 10/1/1 1/2/2 9/3/3
f 9/3/3 1/2/2 2/4/4
f 9/3/3 2/4/4 8/5/5
f 8/5/5 2/4/4 3/6/6
f 8/5/5 3/6/6 7/7/7
f 7/7/7 3/6/6 4/8/8
f 7/7/7 4/8/8 6/9/9
f 6/9/9 4/8/8 5/10/10
f 15/11/11 10/12/12 14/13/13
f 14/13/13 10/12/12 9/14/14
f 14/13/13 9/14/14 13/15/15
f 13/15/15 9/14/14 8/16/16
f 13/15/15 8/16/16 7/17/17
f 13/15/15 7/17/17 12/18/18
f 12/18/18 7/17/17 6/19/19
f 12/18/18 6/19/19 11/20/20
f 17/21/21 18/22/22 16/23/23
f 16/23/23 18/22/22 23/24/24
f 23/24/24 18/22/22 19/25/25
f 23/24/24 19/25/25 22/26/26
f 22/26/26 19/25/25 21/27/27
f 21/27/27 19/25/25 20/28/28
f 21/27/27 20/28/28 6/29/29
f 6/29/29 20/28/28 11/30/30
f 6/31/31 5/32/32 21/33/33
f 21/33/33 5/32/32 24/34/34
f 21/33/33 24/34/34 22/35/35
f 22/35/35 24/34/34 25/36/36
f 22/35/35 25/36/36 23/37/37
f 23/37/37 25/36/36 26/38/38
f 23/37/37 26/38/38 16/39/39
f 16/39/39 26/38/38 27/40/40
f 34/41/41 15/42/42 1/43/43
f 1/43/43 15/42/42 14/44/44
f 1/43/43 14/44/44 2/45/45
f 2/45/45 14/44/44 13/46/46
f 2/45/45 13/46/46 3/47/47
f 3/47/47 13/46/46 4/48/48
f 4/48/48 13/46/46 12/49/49
f 4/48/48 12/49/49 5/50/50
f 5/50/50 12/49/49 11/51/51
f 5/50/50 11/51/51 20/52/52
f 5/50/50 20/52/52 24/53/53
f 24/53/53 20/52/52 19/54/54
f 24/53/53 19/54/54 25/55/55
f 25/55/55 19/54/54 26/56/56
f 26/56/56 19/54/54 18/57/57
f 26/56/56 18/57/57 27/58/58
f 27/58/58 18/57/57 17/59/59
f 27/58/58 17/59/59 28/60/60
f 27/58/58 28/60/60 41/61/61
f 41/61/61 28/60/60 29/62/62
f 41/61/61 29/62/62 40/63/63
f 40/63/63 29/62/62 39/64/64
f 39/64/64 29/62/62 30/65/65
f 39/64/64 30/65/65 38/66/66
f 38/66/66 30/65/65 31/67/67
f 38/66/66 31/67/67 32/68/68
f 38/66/66 32/68/68 37/69/69
f 37/69/69 32/68/68 33/70/70
f 37/69/69 33/70/70 36/71/71
f 36/71/71 33/70/70 35/72/72
f 35/72/72 33/70/70 34/41/41
f 35/72/72 34/41/41 1/43/43
f 1/73/73 10/74/74 35/75/75
f 35/75/75 10/74/74 42/76/76
f 35/75/75 42/76/76 36/77/77
f 36/77/77 42/76/76 43/78/78
f 36/77/77 43/78/78 37/79/79
f 37/79/79 43/78/78 44/80/80
f 37/79/79 44/80/80 38/81/81
f 38/81/81 44/80/80 45/82/82
f 31/83/83 45/84/84 32/85/85
f 32/85/85 45/84/84 44/86/86
f 32/85/85 44/86/86 33/87/87
f 33/87/87 44/86/86 43/88/88
f 33/87/87 43/88/88 42/89/89
f 33/87/87 42/89/89 34/90/90
f 34/90/90 42/89/89 10/91/91
f 34/90/90 10/91/91 15/92/92
f 16/93/93 27/94/94 48/95/95
f 48/95/95 27/94/94 41/96/96
f 48/95/95 41/96/96 47/97/97
f 47/97/97 41/96/96 40/98/98
f 47/97/97 40/98/98 46/99/99
f 46/99/99 40/98/98 39/100/100
f 46/99/99 39/100/100 45/101/101
f 45/101/101 39/100/100 38/102/102
f 17/103/103 16/104/104 28/105/105
f 28/105/105 16/104/104 48/106/106
f 28/105/105 48/106/106 29/107/107
f 29/107/107 48/106/106 47/108/108
f 29/107/107 47/108/108 46/109/109
f 29/107/107 46/109/109 30/110/110
f 30/110/110 46/109/109 45/111/111
f 30/110/110 45/111/111 31/112/112
# 48 vertices
# 112 texture params
# 112 normals
# 96 facets

# 1 groups
